. 
 
http://www.torrenting.com          :     Once & For all ;)


               www . Torrenting . Com 

(((((((((((((= Enjoy No RAR releases =))))))))))))))))))))


...................................NFO:....................................


Complete name                    : Puss.In.Boots.2011.BRRip.x264.AC3-DTRG.mkv
Format                           : Matroska
Format version                   : Version 2
File size                        : 1.37 GiB
Duration                         : 1h 30mn
Overall bit rate                 : 2 171 Kbps
Encoded date                     : UTC 2012-02-10 16:56:32
Writing application              : mkvmerge v5.2.1 ('A Far Off Place') built on Jan  2 2012 23:21:10
Writing library                  : libebml v1.2.3 + libmatroska v1.3.0

Video
ID                               : 1
Format                           : AVC
Format/Info                      : Advanced Video Codec
Format profile                   : Main@L4.2
Format settings, CABAC           : Yes
Format settings, ReFrames        : 4 frames
Codec ID                         : V_MPEG4/ISO/AVC
Duration                         : 1h 30mn
Bit rate                         : 1 721 Kbps
Width                            : 720 pixels
Height                           : 304 pixels
Display aspect ratio             : 2.35:1
Frame rate                       : 23.976 fps
Color space                      : YUV
Chroma subsampling               : 4:2:0
Bit depth                        : 8 bits
Scan type                        : Progressive
Bits/(Pixel*Frame)               : 0.328
Stream size                      : 1.06 GiB (77%)
Writing library                  : x264 core 120 r2146 bcd41db
Language                         : English
Default                          : Yes
Forced                           : No
Source                           : 720p HDC, cheers...

Audio
ID                               : 2
Format                           : AC-3
Format/Info                      : Audio Coding 3
Mode extension                   : CM (complete main)
Codec ID                         : A_AC3
Duration                         : 1h 30mn
Bit rate mode                    : Constant
Bit rate                         : 448 Kbps
Channel(s)                       : 6 channels
Channel positions                : Front: L C R, Side: L R, LFE
Sampling rate                    : 48.0 KHz
Bit depth                        : 16 bits
Compression mode                 : Lossy
Stream size                      : 289 MiB (21%)
Default                          : Yes
Forced                           : No
Source                           : 720p HDC, cheers...

iMDB: http://www.imdb.com/title/tt0448694/

Encoder: Kareemzos..

DTRG bringing the p2p world yet another release, Puss In Boots 2011 BRRip.....

straight forward encode tbh, sharpened and x264'd it...
left colors untouched because its bluray...
check the sample before downloading because the screens cant tell you the real Q of
the release, enjoy folks.....

[b][i][size=6]SCREENSHOTS:[/b][/i][/size]

[URL=http://img213.imageshack.us/i/14488764.png/][IMG]http://img213.imageshack.us/img213/4725/14488764.png[/IMG][/URL]
[URL=http://img268.imageshack.us/i/79184167.png/][IMG]http://img268.imageshack.us/img268/7060/79184167.png[/IMG][/URL]
[URL=http://img109.imageshack.us/i/82795226.png/][IMG]http://img109.imageshack.us/img109/4351/82795226.png[/IMG][/URL]
[URL=http://img525.imageshack.us/i/90743336.png/][IMG]http://img525.imageshack.us/img525/5113/90743336.png[/IMG][/URL]
[URL=http://img15.imageshack.us/i/57187250.png/][IMG]http://img15.imageshack.us/img15/5853/57187250.png[/IMG][/URL]
[URL=http://img819.imageshack.us/i/92369938.png/][IMG]http://img819.imageshack.us/img819/8313/92369938.png[/IMG][/URL]
[URL=http://img857.imageshack.us/i/75256900.png/][IMG]http://img857.imageshack.us/img857/5509/75256900.png[/IMG][/URL]
[URL=http://img812.imageshack.us/i/85748070.png/][IMG]http://img812.imageshack.us/img812/2159/85748070.png[/IMG][/URL]
[URL=http://img813.imageshack.us/i/24440740.png/][IMG]http://img813.imageshack.us/img813/1829/24440740.png[/IMG][/URL]
[URL=http://img607.imageshack.us/i/80158269.png/][IMG]http://img607.imageshack.us/img607/5563/80158269.png[/IMG][/URL]
[URL=http://img6.imageshack.us/i/88915826.png/][IMG]http://img6.imageshack.us/img6/1071/88915826.png[/IMG][/URL]
[URL=http://img12.imageshack.us/i/90426628.png/][IMG]http://img12.imageshack.us/img12/3852/90426628.png[/IMG][/URL]

Greetz to EMBER, ETRG, BHRG, FYA, 26k, CreWSaDe, RemixHD, LEGiTiMATE.......and maybe many more...........